<svg role="img" viewBox="0 0 24 24" xmlns="http://www.w3.org/2000/svg" id="Caldotcom--Streamline-Simple-Icons" height="24" width="24" style="background-color: #313131">
  <desc>
    Caldotcom Streamline Icon: https://streamlinehq.com
  </desc>
  <title>Cal.com</title>
  <path fill="#ffffff" d="M2.408 14.488C1.035 14.488 0 13.4 0 12.058c0 -1.346 0.982 -2.443 2.408 -2.443 0.758 0 1.282 0.233 1.691 0.765l-0.66 0.55a1.343 1.343 0 0 0 -1.03 -0.442c-0.93 0 -1.44 0.711 -1.44 1.57 0 0.86 0.559 1.557 1.44 1.557 0.413 0 0.765 -0.147 1.043 -0.443l0.651 0.573c-0.391 0.51 -0.929 0.743 -1.695 0.743zm4.54 -3.575h0.89v3.49h-0.89v-0.51c-0.185 0.362 -0.493 0.604 -1.083 0.604 -0.943 0 -1.695 -0.82 -1.695 -1.826 0 -1.007 0.752 -1.825 1.695 -1.825 0.585 0 0.898 0.241 1.083 0.604zm0.026 1.758c0 -0.546 -0.374 -0.998 -0.964 -0.998 -0.568 0 -0.938 0.457 -0.938 0.998 0 0.528 0.37 0.998 0.938 0.998 0.586 0 0.964 -0.456 0.964 -0.998zm1.493 -3.168h0.89v4.895h-0.89zm1.285 4.434a0.53 0.53 0 0 1 0 -1.06h0.88v-3.374h-0.88a0.53 0.53 0 0 1 0 -1.06h1.77v4.434zm3.016 0.088c-0.186 0 -0.362 -0.063 -0.494 -0.196 -0.122 -0.13 -0.195 -0.308 -0.195 -0.493 0 -0.186 0.073 -0.363 0.195 -0.494 0.132 -0.132 0.308 -0.194 0.494 -0.194 0.186 0 0.363 0.062 0.494 0.194 0.132 0.132 0.195 0.308 0.195 0.494 0 0.185 -0.063 0.363 -0.195 0.493 -0.131 0.132 -0.308 0.195 -0.494 0.195zm4.072 -0.088c-1.127 0 -2.008 -0.871 -2.008 -2.007 0 -1.135 0.881 -2.007 2.008 -2.007 1.048 0 1.95 0.82 1.95 1.9q0 0.015 -0.001 0.04a0.428 0.428 0 0 1 -0.43 0.407h-2.583a1.056 1.056 0 0 0 1.064 0.723c0.413 0 0.8 -0.155 1.104 -0.408l0.467 0.763c-0.392 0.373 -0.94 0.589 -1.571 0.589zm-1.04 -2.31c0.05 0.41 0.39 0.702 0.85 0.702h1.593v-0.08a0.024 0.024 0 0 0 0 -0.015c0 -0.564 -0.391 -0.999 -0.944 -0.999 -0.44 0 -0.832 0.28 -0.945 0.724a0.6 0.6 0 0 0 -0.033 0.12 0.61 0.61 0 0 0 -0.028 0.195zm5.186 2.398c-1.166 0 -2.067 -0.812 -2.067 -1.91 0 -1.097 0.902 -1.909 2.068 -1.909 1.166 0 2.068 0.812 2.068 1.91 0 1.096 -0.902 1.908 -2.068 1.908zm0 -2.9c-0.655 0 -1.136 0.488 -1.136 0.99 0 0.501 0.481 0.99 1.136 0.99 0.654 0 1.137 -0.489 1.137 -0.99 0 -0.502 -0.483 -0.99 -1.137 -0.99zm5.558 2.812h-0.89v-2.12c0 -0.503 -0.273 -0.735 -0.713 -0.735 -0.47 0 -0.812 0.264 -0.812 0.88v1.975h-0.891v-2.12c0 -0.503 -0.273 -0.735 -0.713 -0.735 -0.47 0 -0.812 0.264 -0.812 0.88v1.975h-0.89v-3.49h0.89v0.421c0.195 -0.264 0.508 -0.496 1.055 -0.496 0.49 0 0.861 0.217 1.047 0.614 0.244 -0.373 0.655 -0.614 1.252 -0.614 0.852 0 1.478 0.442 1.478 1.48v2.083H24zm-6.096 -4.823a0.53 0.53 0 0 1 0 -1.06h0.881v-1.603h0.89v1.604h1.036a0.53 0.53 0 0 1 0 1.06l-1.036 0v2.66c0 0.244 0.165 0.362 0.36 0.362 0.177 0 0.43 -0.063 0.598 -0.196l0.293 0.77c-0.273 0.206 -0.686 0.353 -1.165 0.353 -0.352 0 -0.615 -0.156 -0.781 -0.402 -0.167 -0.244 -0.196 -0.518 -0.196 -0.793v-2.755h-0.88z" />
</svg>
